<?xml version="1.0" encoding="utf-8"?>
<!-- Generator: Adobe Illustrator 15.0.0, SVG Export Plug-In  -->
<!DOCTYPE svg PUBLIC "-//W3C//DTD SVG 1.1//EN" "http://www.w3.org/Graphics/SVG/1.1/DTD/svg11.dtd" [
	<!ENTITY ns_flows "http://ns.adobe.com/Flows/1.0/">
]>
<svg version="1.1"
	 xmlns="http://www.w3.org/2000/svg" xmlns:xlink="http://www.w3.org/1999/xlink" xmlns:a="http://ns.adobe.com/AdobeSVGViewerExtensions/3.0/"
	 x="0px" y="0px" width="31px" height="30px" viewBox="0 0 31 30" enable-background="new 0 0 31 30" xml:space="preserve">
<defs>
</defs>
<path fill="#4B675B" d="M24.833,6c0-5.833-2.167-5.25-2.167-5.25s-10.677,0-13.5,0C6.766,0.75,6.833,6,6.833,6
	C1.75,6,0.958,9.125,0.958,9.125s0,14.25,0,17.542s6,2.75,6,2.75s13.449,0,17.792,0s4.917-2.75,4.917-2.75s0-13.833,0-17.583
	C29.667,5.984,24.833,6,24.833,6z M15.438,24.125c-4.2,0-7.604-3.404-7.604-7.604s3.404-7.604,7.604-7.604s7.604,3.404,7.604,7.604
	S19.637,24.125,15.438,24.125z M23.521,10.042c-0.909,0-1.646-0.737-1.646-1.646c0-0.909,0.737-1.646,1.646-1.646
	c0.909,0,1.646,0.737,1.646,1.646C25.167,9.305,24.43,10.042,23.521,10.042z"/>
<circle fill="#4B675B" cx="15.521" cy="16.604" r="3.479"/>
<rect id="_x3C_Slice_x3E__7_" fill="none" width="31" height="30"/>
</svg>
