<?xml version="1.0" encoding="utf-8"?>
<!-- Generator: Adobe Illustrator 15.0.0, SVG Export Plug-In  -->
<!DOCTYPE svg PUBLIC "-//W3C//DTD SVG 1.1//EN" "http://www.w3.org/Graphics/SVG/1.1/DTD/svg11.dtd" [
	<!ENTITY ns_flows "http://ns.adobe.com/Flows/1.0/">
]>
<svg version="1.1"
	 xmlns="http://www.w3.org/2000/svg" xmlns:xlink="http://www.w3.org/1999/xlink" xmlns:a="http://ns.adobe.com/AdobeSVGViewerExtensions/3.0/"
	 x="0px" y="0px" width="31px" height="31px" viewBox="0 0 31 31" enable-background="new 0 0 31 31" xml:space="preserve">
<defs>
</defs>
<path fill="#4B675B" d="M30.148,17.533v-3.607l-3.723-0.736c-0.369-2.346-1.474-3.588-1.474-3.588l2.095-3.103l-2.58-2.58
	l-3.103,2.133c-1.551-1.105-3.626-1.571-3.626-1.571l-0.543-3.626h-3.743L12.831,4.56c-1.667,0.271-3.684,1.473-3.684,1.473
	L6.024,3.862l-2.58,2.676L5.578,9.66c-1.125,1.804-1.512,3.549-1.512,3.549s-3.646,0.62-3.626,0.62s0,3.782,0,3.782l3.665,0.621
	c0.019,1.125,1.513,3.587,1.513,3.587l-2.153,3.122l2.599,2.676l3.142-2.211c1.532,1.086,3.587,1.494,3.587,1.494l0.698,3.704h3.665
	l0.66-3.762c2.056-0.407,3.685-1.474,3.685-1.474l3.064,2.191l2.618-2.676l-2.25-3.083c1.145-1.609,1.571-3.587,1.571-3.587
	L30.148,17.533z M15.274,23.68c-4.337,0-7.854-3.594-7.854-8.028c0-4.434,3.517-8.028,7.854-8.028s7.854,3.595,7.854,8.028
	C23.128,20.086,19.612,23.68,15.274,23.68z"/>
<rect id="_x3C_Slice_x3E__7_" fill="none" width="31" height="31"/>
</svg>
