<?xml version="1.0" encoding="utf-8"?>
<!-- Generator: Adobe Illustrator 15.0.0, SVG Export Plug-In  -->
<!DOCTYPE svg PUBLIC "-//W3C//DTD SVG 1.1//EN" "http://www.w3.org/Graphics/SVG/1.1/DTD/svg11.dtd" [
	<!ENTITY ns_flows "http://ns.adobe.com/Flows/1.0/">
]>
<svg version="1.1"
	 xmlns="http://www.w3.org/2000/svg" xmlns:xlink="http://www.w3.org/1999/xlink" xmlns:a="http://ns.adobe.com/AdobeSVGViewerExtensions/3.0/"
	 x="0px" y="0px" width="199px" height="95px" viewBox="0 0 199 95" enable-background="new 0 0 199 95" xml:space="preserve">
<defs>
</defs>
<path fill="#4B675B" d="M66.295,71.614l-0.825,2.497h-1.06l2.709-7.939h1.225l2.709,7.939h-1.096l-0.848-2.497H66.295z
	 M68.911,70.813l-0.79-2.285c-0.176-0.519-0.294-0.99-0.412-1.449h-0.023c-0.118,0.459-0.236,0.955-0.4,1.438l-0.778,2.297H68.911z"
	/>
<path fill="#4B675B" d="M89.003,73.864c-0.365,0.188-1.131,0.377-2.097,0.377c-2.238,0-3.911-1.414-3.911-4.028
	c0-2.498,1.684-4.17,4.146-4.17c0.978,0,1.614,0.212,1.885,0.354l-0.259,0.836c-0.377-0.188-0.931-0.33-1.59-0.33
	c-1.861,0-3.098,1.189-3.098,3.274c0,1.956,1.119,3.192,3.039,3.192c0.636,0,1.272-0.129,1.685-0.33L89.003,73.864z"/>
<path fill="#4B675B" d="M103.053,71.614l-0.825,2.497h-1.06l2.709-7.939h1.225l2.709,7.939h-1.096l-0.848-2.497H103.053z
	 M105.668,70.813l-0.789-2.285c-0.177-0.519-0.295-0.99-0.413-1.449h-0.023c-0.118,0.459-0.236,0.955-0.4,1.438l-0.778,2.297
	H105.668z"/>
<path fill="#4B675B" d="M120.4,66.29c0.625-0.106,1.367-0.177,2.18-0.177c1.472,0,2.521,0.354,3.216,0.99
	c0.718,0.647,1.131,1.566,1.131,2.851c0,1.296-0.413,2.356-1.143,3.086c-0.754,0.742-1.979,1.143-3.522,1.143
	c-0.742,0-1.343-0.036-1.861-0.094V66.29z M121.425,73.311c0.259,0.035,0.636,0.047,1.037,0.047c2.203,0,3.381-1.225,3.381-3.369
	c0.012-1.873-1.048-3.063-3.216-3.063c-0.53,0-0.931,0.047-1.202,0.106V73.311z"/>
<path fill="#4B675B" d="M143.768,70.389h-3.075v2.863h3.44v0.86h-4.477v-7.939h4.3v0.86h-3.263v2.509h3.075V70.389z"/>
<path fill="#4B675B" d="M163.578,70.625c-0.059-1.107-0.13-2.45-0.13-3.428h-0.023c-0.283,0.918-0.601,1.92-1.001,3.016
	l-1.402,3.852h-0.777l-1.296-3.782c-0.377-1.131-0.683-2.144-0.907-3.086h-0.024c-0.023,0.989-0.082,2.309-0.153,3.51l-0.212,3.404
	h-0.978l0.554-7.939h1.308l1.354,3.84c0.33,0.978,0.589,1.85,0.801,2.674h0.023c0.212-0.801,0.495-1.673,0.848-2.674l1.414-3.84
	h1.308l0.495,7.939h-1.013L163.578,70.625z"/>
<path fill="#4B675B" d="M178.804,66.172v7.939h-1.037v-7.939H178.804z"/>
<path fill="#4B675B" d="M193.303,71.614l-0.825,2.497h-1.06l2.709-7.939h1.225l2.709,7.939h-1.096l-0.848-2.497H193.303z
	 M195.918,70.813l-0.789-2.285c-0.177-0.519-0.295-0.99-0.413-1.449h-0.023c-0.118,0.459-0.236,0.955-0.4,1.438l-0.778,2.297
	H195.918z"/>
<path fill="#182D35" d="M64.373,22.517h9.334c2.524,0,4.465,0.198,5.823,0.594c1.357,0.396,2.377,0.969,3.06,1.717
	c0.682,0.749,1.145,1.655,1.387,2.719s0.363,2.711,0.363,4.942v3.104c0,2.275-0.235,3.934-0.705,4.975
	c-0.47,1.042-1.332,1.842-2.586,2.4s-2.895,0.836-4.92,0.836h-2.487v14.353h-9.268V22.517z M73.641,28.615v9.07
	c0.264,0.015,0.491,0.022,0.682,0.022c0.851,0,1.442-0.209,1.772-0.627c0.33-0.418,0.495-1.288,0.495-2.608v-2.928
	c0-1.218-0.191-2.011-0.572-2.378C75.637,28.799,74.844,28.615,73.641,28.615z"/>
<path fill="#182D35" d="M87.5,22.517h6.56c4.374,0,7.334,0.169,8.883,0.506c1.548,0.338,2.81,1.2,3.787,2.586
	c0.976,1.387,1.464,3.6,1.464,6.637c0,2.774-0.345,4.638-1.035,5.592c-0.69,0.954-2.047,1.526-4.073,1.717
	c1.834,0.455,3.067,1.064,3.698,1.827c0.631,0.764,1.024,1.464,1.178,2.103c0.154,0.639,0.231,2.396,0.231,5.272v9.4h-8.607V46.314
	c0-1.907-0.151-3.089-0.452-3.544c-0.301-0.455-1.089-0.683-2.366-0.683v16.07H87.5V22.517z M96.768,28.615v7.925
	c1.042,0,1.772-0.143,2.19-0.429c0.418-0.286,0.627-1.214,0.627-2.785v-1.959c0-1.13-0.202-1.871-0.605-2.224
	C98.576,28.791,97.838,28.615,96.768,28.615z"/>
<path fill="#182D35" d="M121.544,22.517v35.641h-9.268V22.517H121.544z"/>
<path fill="#182D35" d="M154.357,22.517v35.641h-8.101l-0.011-24.062l-3.225,24.062h-5.746l-3.401-23.511l-0.011,23.511h-8.101
	V22.517h11.992c0.355,2.143,0.722,4.668,1.1,7.577l1.316,9.066l2.13-16.643H154.357z"/>
<path fill="#182D35" d="M158.573,22.517h15.454v7.132h-6.186v6.758h5.79v6.78h-5.79v7.837h6.802v7.132h-16.07V22.517z"/>
<path fill="#4B675B" d="M195.678,22.517v23.291h2.532v6.076h-2.532v6.274h-8.894v-6.274h-10.567v-6.076l7.683-23.291H195.678z
	 M186.785,45.808V30.64l-3.93,15.167H186.785z"/>
<path fill="#4B675B" d="M0.542,75.859c0,0,26.274-18.042,36.258-32.404c9.984-14.363,15.064-22.596,18.042-29.252
	C54.842,14.203,14.73,41.002,0.542,75.859z"/>
<path fill="#4B675B" d="M2.995,29.092c0,0,9.283,20.668,29.076,32.054c19.793,11.385,28.727,14.713,28.727,14.713
	S42.23,41.528,2.995,29.092z"/>
<ellipse transform="matrix(0.8936 0.4489 -0.4489 0.8936 15.0643 -8.6617)" fill="#4B675B" cx="25.802" cy="27.443" rx="3.447" ry="4.641"/>
<rect id="_x3C_Slice_x3E__7_" fill="none" width="199" height="95"/>
</svg>
