<?xml version="1.0" encoding="utf-8"?>
<!-- Generator: Adobe Illustrator 15.0.0, SVG Export Plug-In  -->
<!DOCTYPE svg PUBLIC "-//W3C//DTD SVG 1.1//EN" "http://www.w3.org/Graphics/SVG/1.1/DTD/svg11.dtd" [
	<!ENTITY ns_flows "http://ns.adobe.com/Flows/1.0/">
]>
<svg version="1.1"
	 xmlns="http://www.w3.org/2000/svg" xmlns:xlink="http://www.w3.org/1999/xlink" xmlns:a="http://ns.adobe.com/AdobeSVGViewerExtensions/3.0/"
	 x="0px" y="0px" width="118px" height="95px" viewBox="0 0 118 95" enable-background="new 0 0 118 95" xml:space="preserve">
<defs>
</defs>
<path fill="#FDFFFE" d="M61.709,45.859c0,0,17.117-11.754,23.622-21.111c6.505-9.357,9.814-14.721,11.754-19.058
	C97.085,5.691,70.953,23.15,61.709,45.859z"/>
<path fill="#FDFFFE" d="M63.307,15.391c0,0,6.048,13.465,18.943,20.883c12.895,7.417,18.715,9.585,18.715,9.585
	S88.869,23.493,63.307,15.391z"/>
<ellipse transform="matrix(0.8936 0.4488 -0.4488 0.8936 14.7409 -33.5593)" fill="#FDFFFE" cx="78.165" cy="14.317" rx="2.245" ry="3.023"/>
<path fill="#FDFFFE" d="M27.667,55.113c0,0,6.525-4.48,9.005-8.047c2.479-3.567,3.741-5.612,4.48-7.266
	C41.152,39.8,31.19,46.456,27.667,55.113z"/>
<path fill="#FDFFFE" d="M28.275,43.498c0,0,2.306,5.133,7.222,7.961c4.916,2.827,7.134,3.654,7.134,3.654
	S38.02,46.586,28.275,43.498z"/>
<ellipse transform="matrix(0.8936 0.4488 -0.4488 0.8936 22.9487 -10.6489)" fill="#FDFFFE" cx="33.939" cy="43.088" rx="0.856" ry="1.153"/>
<path fill="#FDFFFE" d="M66.5,83.113c0,0,6.525-4.48,9.005-8.047c2.479-3.567,3.741-5.612,4.48-7.266
	C79.986,67.8,70.024,74.456,66.5,83.113z"/>
<path fill="#FDFFFE" d="M67.109,71.498c0,0,2.306,5.133,7.222,7.961c4.916,2.827,7.134,3.654,7.134,3.654
	S76.854,74.586,67.109,71.498z"/>
<ellipse transform="matrix(0.8936 0.4488 -0.4488 0.8936 39.6462 -25.0993)" fill="#FDFFFE" cx="72.773" cy="71.088" rx="0.856" ry="1.153"/>
<path fill="#FDFFFE" d="M24.667,81.446c0,0,5.726-3.932,7.902-7.062c2.175-3.13,3.283-4.924,3.932-6.375
	C36.5,68.009,27.759,73.85,24.667,81.446z"/>
<path fill="#FDFFFE" d="M25.201,71.255c0,0,2.024,4.504,6.337,6.985c4.313,2.48,6.26,3.206,6.26,3.206S33.751,73.965,25.201,71.255z
	"/>
<ellipse transform="matrix(0.8936 0.4488 -0.4488 0.8936 35.0247 -5.9999)" fill="#FDFFFE" cx="30.171" cy="70.895" rx="0.751" ry="1.011"/>
<rect id="_x3C_Slice_x3E__7_" fill="none" width="118" height="95"/>
</svg>
