<?xml version="1.0" encoding="utf-8"?>
<!-- Generator: Adobe Illustrator 23.0.1, SVG Export Plug-In . SVG Version: 6.00 Build 0)  -->
<svg version="1.1" id="Camada_1" xmlns="http://www.w3.org/2000/svg" xmlns:xlink="http://www.w3.org/1999/xlink" x="0px" y="0px"
	 viewBox="0 0 283 275" style="enable-background:new 0 0 283 275;" xml:space="preserve">
<style type="text/css">
	.st0{fill:#4B665A;}
	.st1{fill:#192D35;}
	.st2{fill:none;}
</style>
<path class="st0" d="M88,138.3c0,0,56.4-38.7,77.8-69.5S198.1,20.3,204.5,6C204.5,6,118.5,63.5,88,138.3z"/>
<path class="st0" d="M93.3,38c0,0,19.9,44.3,62.4,68.8c42.5,24.4,61.6,31.6,61.6,31.6S177.5,64.6,93.3,38z"/>
<ellipse transform="matrix(0.4489 -0.8936 0.8936 0.4489 47.6219 146.0632)" class="st0" cx="142.2" cy="34.4" rx="10" ry="7.4"/>
<path class="st0" d="M9.7,266.2L8,271.3H5.9l5.5-16.2h2.5l5.5,16.2h-2.2l-1.7-5.1H9.7z M15.1,264.6l-1.6-4.7c-0.4-1.1-0.6-2-0.8-3h0
	c-0.2,0.9-0.5,1.9-0.8,2.9l-1.6,4.7L15.1,264.6L15.1,264.6z"/>
<path class="st0" d="M56.1,270.8c-0.7,0.4-2.3,0.8-4.3,0.8c-4.6,0-8-2.9-8-8.2c0-5.1,3.4-8.5,8.5-8.5c2,0,3.3,0.4,3.8,0.7l-0.5,1.7
	c-0.8-0.4-1.9-0.7-3.2-0.7c-3.8,0-6.3,2.4-6.3,6.7c0,4,2.3,6.5,6.2,6.5c1.3,0,2.6-0.3,3.4-0.7L56.1,270.8z"/>
<path class="st0" d="M84.8,266.2l-1.7,5.1h-2.2l5.5-16.2H89l5.5,16.2h-2.2l-1.7-5.1H84.8z M90.1,264.6l-1.6-4.7
	c-0.4-1.1-0.6-2-0.8-3h0c-0.2,0.9-0.5,1.9-0.8,2.9l-1.6,4.7L90.1,264.6L90.1,264.6z"/>
<path class="st0" d="M120.2,255.4c1.3-0.2,2.8-0.4,4.4-0.4c3,0,5.1,0.7,6.6,2c1.5,1.3,2.3,3.2,2.3,5.8c0,2.6-0.8,4.8-2.3,6.3
	c-1.5,1.5-4,2.3-7.2,2.3c-1.5,0-2.7-0.1-3.8-0.2L120.2,255.4L120.2,255.4z M122.3,269.7c0.5,0.1,1.3,0.1,2.1,0.1
	c4.5,0,6.9-2.5,6.9-6.9c0-3.8-2.1-6.3-6.6-6.3c-1.1,0-1.9,0.1-2.5,0.2L122.3,269.7L122.3,269.7z"/>
<path class="st0" d="M167.9,263.7h-6.3v5.8h7v1.8h-9.1v-16.2h8.8v1.8h-6.7v5.1h6.3V263.7z"/>
<path class="st0" d="M208.4,264.2c-0.1-2.3-0.3-5-0.3-7h0c-0.6,1.9-1.2,3.9-2,6.2l-2.9,7.9h-1.6l-2.6-7.7c-0.8-2.3-1.4-4.4-1.9-6.3
	h0c0,2-0.2,4.7-0.3,7.2l-0.4,7h-2l1.1-16.2h2.7l2.8,7.8c0.7,2,1.2,3.8,1.6,5.5h0c0.4-1.6,1-3.4,1.7-5.5l2.9-7.8h2.7l1,16.2h-2.1
	L208.4,264.2z"/>
<path class="st0" d="M239.4,255.1v16.2h-2.1v-16.2L239.4,255.1L239.4,255.1z"/>
<path class="st0" d="M269.1,266.2l-1.7,5.1h-2.2l5.5-16.2h2.5l5.5,16.2h-2.2l-1.7-5.1H269.1z M274.4,264.6l-1.6-4.7
	c-0.4-1.1-0.6-2-0.8-3h0c-0.2,0.9-0.5,1.9-0.8,2.9l-1.6,4.7L274.4,264.6L274.4,264.6z"/>
<path class="st1" d="M5.8,166h19.1c5.2,0,9.1,0.4,11.9,1.2c2.8,0.8,4.9,2,6.2,3.5c1.4,1.5,2.3,3.4,2.8,5.6c0.5,2.2,0.7,5.5,0.7,10.1
	v6.3c0,4.6-0.5,8-1.4,10.2c-1,2.1-2.7,3.8-5.3,4.9c-2.6,1.1-5.9,1.7-10,1.7h-5.1v29.3H5.8V166z M24.7,178.4v18.5c0.5,0,1,0,1.4,0
	c1.7,0,2.9-0.4,3.6-1.3s1-2.6,1-5.3v-6c0-2.5-0.4-4.1-1.2-4.9C28.8,178.8,27.2,178.4,24.7,178.4z"/>
<path class="st1" d="M53,166h13.4c8.9,0,15,0.3,18.1,1c3.2,0.7,5.7,2.4,7.7,5.3c2,2.8,3,7.3,3,13.6c0,5.7-0.7,9.5-2.1,11.4
	c-1.4,1.9-4.2,3.1-8.3,3.5c3.7,0.9,6.3,2.2,7.6,3.7c1.3,1.6,2.1,3,2.4,4.3s0.5,4.9,0.5,10.8v19.2H77.7v-24.2c0-3.9-0.3-6.3-0.9-7.2
	c-0.6-0.9-2.2-1.4-4.8-1.4v32.8H53V166z M71.9,178.4v16.2c2.1,0,3.6-0.3,4.5-0.9c0.9-0.6,1.3-2.5,1.3-5.7v-4c0-2.3-0.4-3.8-1.2-4.5
	C75.6,178.8,74.1,178.4,71.9,178.4z"/>
<path class="st1" d="M122.5,166v72.8h-18.9V166L122.5,166L122.5,166z"/>
<path class="st1" d="M189.5,166v72.8H173l0-49.1l-6.6,49.1h-11.7l-6.9-48l0,48h-16.5V166h24.5c0.7,4.4,1.5,9.5,2.2,15.5l2.7,18.5
	l4.3-34L189.5,166L189.5,166z"/>
<path class="st1" d="M198.1,166h31.6v14.6h-12.6v13.8h11.8v13.8h-11.8v16H231v14.6h-32.8L198.1,166L198.1,166z"/>
<path class="st0" d="M273.9,166v47.6h5.2v12.4h-5.2v12.8h-18.2v-12.8h-21.6v-12.4l15.7-47.6L273.9,166L273.9,166z M255.7,213.5v-31
	l-8,31H255.7z"/>
<rect id="_x3C_Slice_x3E__1_" y="0.3" class="st2" width="283" height="275"/>
</svg>
