<?xml version="1.0" encoding="utf-8"?>
<!-- Generator: Adobe Illustrator 15.0.0, SVG Export Plug-In  -->
<!DOCTYPE svg PUBLIC "-//W3C//DTD SVG 1.1//EN" "http://www.w3.org/Graphics/SVG/1.1/DTD/svg11.dtd" [
	<!ENTITY ns_flows "http://ns.adobe.com/Flows/1.0/">
]>
<svg version="1.1"
	 xmlns="http://www.w3.org/2000/svg" xmlns:xlink="http://www.w3.org/1999/xlink" xmlns:a="http://ns.adobe.com/AdobeSVGViewerExtensions/3.0/"
	 x="0px" y="0px" width="283px" height="275px" viewBox="0 -0.28 283 275" enable-background="new 0 -0.28 283 275"
	 xml:space="preserve">
<defs>
</defs>
<path fill="#4B665A" d="M88.042,137.999c0,0,56.361-38.701,77.779-69.512s32.314-48.471,38.702-62.75
	C204.523,5.737,118.478,63.227,88.042,137.999z"/>
<path fill="#4B665A" d="M93.303,37.677c0,0,19.914,44.337,62.373,68.76c42.459,24.424,61.622,31.563,61.622,31.563
	S177.469,64.354,93.303,37.677z"/>
<ellipse transform="matrix(0.8936 0.4489 -0.4489 0.8936 30.4585 -60.2095)" fill="#4B665A" cx="142.227" cy="34.14" rx="7.394" ry="9.956"/>
<path fill="#4B665A" d="M9.724,265.945l-1.683,5.098H5.876l5.531-16.208h2.501l5.531,16.208h-2.236l-1.731-5.098H9.724z
	 M15.063,264.31l-1.611-4.665c-0.361-1.059-0.601-2.021-0.842-2.958h-0.048c-0.241,0.938-0.481,1.947-0.818,2.934l-1.587,4.689
	H15.063z"/>
<path fill="#4B665A" d="M56.087,270.538c-0.745,0.385-2.309,0.77-4.28,0.77c-4.569,0-7.984-2.886-7.984-8.225
	c0-5.098,3.439-8.513,8.465-8.513c1.996,0,3.294,0.433,3.848,0.722l-0.529,1.707c-0.77-0.385-1.9-0.674-3.247-0.674
	c-3.8,0-6.325,2.43-6.325,6.686c0,3.992,2.285,6.518,6.204,6.518c1.299,0,2.598-0.265,3.439-0.674L56.087,270.538z"/>
<path fill="#4B665A" d="M84.776,265.945l-1.683,5.098h-2.165l5.531-16.208h2.501l5.531,16.208h-2.236l-1.731-5.098H84.776z
	 M90.115,264.31l-1.611-4.665c-0.361-1.059-0.601-2.021-0.842-2.958h-0.048c-0.241,0.938-0.481,1.947-0.818,2.934l-1.587,4.689
	H90.115z"/>
<path fill="#4B665A" d="M120.198,255.075c1.274-0.217,2.79-0.361,4.449-0.361c3.006,0,5.146,0.723,6.565,2.021
	c1.467,1.323,2.309,3.198,2.309,5.819c0,2.646-0.842,4.81-2.333,6.301c-1.539,1.515-4.04,2.333-7.19,2.333
	c-1.515,0-2.741-0.072-3.799-0.192V255.075z M122.291,269.408c0.529,0.071,1.298,0.096,2.116,0.096c4.497,0,6.901-2.501,6.901-6.878
	c0.024-3.823-2.14-6.252-6.565-6.252c-1.082,0-1.9,0.096-2.453,0.217V269.408z"/>
<path fill="#4B665A" d="M167.908,263.444h-6.276v5.843h7.022v1.756h-9.138v-16.208h8.777v1.756h-6.661v5.121h6.276V263.444z"/>
<path fill="#4B665A" d="M208.355,263.925c-0.12-2.261-0.265-5.002-0.265-6.998h-0.048c-0.577,1.876-1.227,3.92-2.044,6.156
	l-2.861,7.864h-1.587l-2.645-7.72c-0.77-2.309-1.395-4.377-1.852-6.301h-0.048c-0.048,2.02-0.168,4.713-0.313,7.166l-0.433,6.95
	h-1.996l1.13-16.208h2.669l2.766,7.84c0.673,1.996,1.202,3.775,1.635,5.458h0.048c0.433-1.635,1.01-3.414,1.731-5.458l2.886-7.84
	h2.669l1.01,16.208h-2.068L208.355,263.925z"/>
<path fill="#4B665A" d="M239.449,254.835v16.208h-2.116v-16.208H239.449z"/>
<path fill="#4B665A" d="M269.051,265.945l-1.683,5.098h-2.165l5.531-16.208h2.501l5.531,16.208h-2.236l-1.731-5.098H269.051z
	 M274.39,264.31l-1.611-4.665c-0.361-1.059-0.601-2.021-0.842-2.958h-0.048c-0.241,0.938-0.481,1.947-0.818,2.934l-1.587,4.689
	H274.39z"/>
<path fill="#192D35" d="M5.799,165.696h19.058c5.154,0,9.117,0.405,11.889,1.215c2.771,0.809,4.854,1.977,6.248,3.506
	c1.393,1.527,2.337,3.379,2.832,5.551c0.495,2.173,0.742,5.537,0.742,10.091v6.338c0,4.646-0.479,8.031-1.438,10.159
	c-0.959,2.127-2.719,3.76-5.281,4.898c-2.563,1.14-5.911,1.709-10.046,1.709h-5.079v29.307H5.799V165.696z M24.723,178.147v18.52
	c0.54,0.029,1.003,0.045,1.394,0.045c1.737,0,2.944-0.428,3.618-1.281s1.011-2.629,1.011-5.326v-5.979
	c0-2.486-0.39-4.105-1.168-4.854C28.797,178.522,27.179,178.147,24.723,178.147z"/>
<path fill="#192D35" d="M53.02,165.696h13.395c8.93,0,14.975,0.346,18.137,1.035c3.161,0.689,5.738,2.449,7.731,5.281
	c1.993,2.832,2.989,7.349,2.989,13.552c0,5.663-0.705,9.47-2.113,11.417c-1.409,1.948-4.18,3.117-8.315,3.506
	c3.746,0.93,6.263,2.173,7.551,3.73c1.288,1.559,2.09,2.989,2.405,4.293c0.315,1.304,0.472,4.893,0.472,10.766v19.193H77.696
	v-24.184c0-3.895-0.308-6.307-0.921-7.236c-0.615-0.928-2.225-1.393-4.832-1.393v32.813H53.02V165.696z M71.943,178.147v16.182
	c2.127,0,3.618-0.292,4.472-0.876c0.854-0.585,1.281-2.479,1.281-5.687v-4c0-2.307-0.412-3.82-1.236-4.54
	C75.636,178.507,74.13,178.147,71.943,178.147z"/>
<path fill="#192D35" d="M122.534,165.696v72.773h-18.923v-72.773H122.534z"/>
<path fill="#192D35" d="M189.532,165.696v72.773H172.99l-0.022-49.13l-6.585,49.13h-11.731l-6.945-48.006l-0.022,48.006h-16.541
	v-72.773h24.486c0.726,4.376,1.475,9.533,2.246,15.472l2.687,18.511l4.349-33.982H189.532z"/>
<path fill="#192D35" d="M198.141,165.696h31.554v14.564h-12.631v13.799h11.822v13.844h-11.822v16.002h13.889v14.564h-32.813V165.696
	z"/>
<path fill="#4B665A" d="M273.903,165.696v47.557h5.169v12.406h-5.169v12.811h-18.16v-12.811h-21.575v-12.406l15.687-47.557H273.903z
	 M255.744,213.253v-30.97l-8.023,30.97H255.744z"/>
<rect id="_x3C_Slice_x3E__1_" fill="none" width="283" height="275"/>
</svg>
